<svg width="45" height="45" viewBox="0 0 45 45" fill="none" xmlns="http://www.w3.org/2000/svg">
<path d="M22.9361 2.00001C22.8362 2.00044 22.7355 2.01626 22.6396 2.04757L3.61063 8.38275C3.20699 8.51667 2.9542 8.9023 3.00693 9.3084L6.01477 32.8947C6.05023 33.1738 6.22266 33.4197 6.48175 33.5537L22.5259 41.8947C22.6605 41.9651 22.8101 42 22.9592 42C23.1092 42 23.2605 41.9643 23.396 41.893L39.5219 33.4382C39.7782 33.3034 39.9525 33.0583 39.9871 32.7809L42.9931 9.19631C43.0459 8.78846 42.7905 8.39944 42.3823 8.26726L23.2309 2.04417C23.1354 2.01373 23.036 1.99957 22.9361 2.00001ZM23 6.34632L34.8183 30.6952H30.7842L28.2558 25.4844H17.7443L15.2159 30.6952H11.1817L23 6.34632ZM23 14.6075L19.4364 21.9992H26.5636L23 14.6075Z" fill="#F2F2F2"/>
</svg>
