<svg width="40" height="40" viewBox="0 0 40 40" fill="none" xmlns="http://www.w3.org/2000/svg">
<path fill-rule="evenodd" clip-rule="evenodd" d="M4 30.0249V9H13.7195C16.8414 9 19.3722 11.5308 19.3722 14.6527C19.3722 16.6366 18.7622 17.8654 16.5255 19.1261C19.202 20.3457 19.9455 22.0359 19.9455 24.3936C19.9455 27.5828 17.1121 30.0249 13.9228 30.0249H4ZM8.11287 12.4803V17.536H12.9266C12.9266 17.536 15.2662 17.536 15.2662 15.0082C15.2662 12.4803 12.9266 12.4803 12.9266 12.4803H8.11287ZM8.11287 26.4643V21.0051H13.2762C14.1098 21.0051 15.8578 21.4354 15.8578 24.0171C15.8578 25.9318 14.1367 26.4462 13.2762 26.4643H8.11287Z" fill="white"/>
<path fill-rule="evenodd" clip-rule="evenodd" d="M28.739 14.7929C25.7809 14.7929 21.3975 16.9174 21.3975 22.5648C21.3975 26.0035 23.28 30.4172 28.9273 30.4172C33.4451 30.4172 35.5247 27.1007 35.9999 25.4422H31.7509C31.5358 26.1952 30.7022 27.0289 28.9273 27.0289C26.3456 27.0289 25.4314 24.8237 25.2968 23.7211H35.9999V22.5648C35.9999 16.9174 31.6972 14.7929 28.739 14.7929ZM28.739 18.02C26.3294 18.02 25.4403 20.01 25.2968 21.005H31.7509C31.7509 20.01 31.1485 18.02 28.739 18.02Z" fill="white"/>
<path d="M23.6029 10.1946V12.8032H33.7412V10.1946H23.6029Z" fill="white"/>
</svg>
