<svg width="24" height="24" viewBox="0 0 24 24" fill="none" xmlns="http://www.w3.org/2000/svg">
<path d="M21.9971 4.5144C21.9957 4.50051 21.9932 4.48691 21.9908 4.47331C21.9899 4.46857 21.9895 4.46371 21.9886 4.45897C21.9853 4.44257 21.9809 4.42651 21.9761 4.41063C21.9756 4.40874 21.9752 4.4068 21.9747 4.40497C21.9696 4.38886 21.9637 4.37309 21.9573 4.3576C21.9566 4.35589 21.9561 4.35411 21.9554 4.35246C21.9492 4.33783 21.9421 4.32366 21.9347 4.30971C21.9333 4.30714 21.9322 4.3044 21.9308 4.30183C21.9239 4.28931 21.9163 4.27731 21.9085 4.26537C21.906 4.26154 21.9038 4.25749 21.9012 4.25371C21.8939 4.24297 21.8857 4.2328 21.8777 4.22263C21.874 4.21806 21.8708 4.21326 21.867 4.20874C21.8575 4.19749 21.8473 4.18686 21.837 4.17634C21.8342 4.17343 21.8317 4.17029 21.8288 4.16743L17.7352 0.167429C17.7325 0.164743 17.7294 0.1624 17.7266 0.159771C17.7156 0.149543 17.7046 0.139429 17.6929 0.130057C17.6886 0.126571 17.6839 0.123543 17.6794 0.120229C17.6687 0.112114 17.6581 0.104 17.6468 0.0966857C17.6432 0.0942857 17.6394 0.0923429 17.6357 0.0900571C17.6232 0.0822857 17.6107 0.0746286 17.5976 0.0678286C17.5951 0.0665714 17.5926 0.0655429 17.5901 0.0642857C17.5757 0.0569714 17.561 0.05 17.5458 0.0438286C17.5442 0.0431429 17.5425 0.0426857 17.5408 0.042C17.5249 0.0357143 17.5087 0.0298857 17.4921 0.0249714C17.4902 0.0244 17.4881 0.0240571 17.4861 0.0234857C17.4699 0.0188571 17.4536 0.0146286 17.4368 0.0113714C17.4319 0.0104 17.4269 0.01 17.422 0.00914286C17.4081 0.0068 17.3943 0.0044 17.3801 0.00302857C17.3607 0.000971429 17.3412 0 17.3216 0H2.5848C2.26187 0 2 0.255829 2 0.571429V23.4286C2 23.7442 2.26187 24 2.5848 24H21.4152C21.7381 24 22 23.7442 22 23.4286V4.57143C22 4.55229 21.999 4.53326 21.9971 4.5144ZM17.9064 1.95097L20.0034 4H17.9064V1.95097ZM3.16959 22.8571V1.14286H16.7368V4.57143C16.7368 4.88703 16.9987 5.14286 17.3216 5.14286H20.8304V22.8571H3.16959Z" fill="white"/>
<path d="M7 8.5C7 8.77615 7.26655 9 7.59524 9H11.4048C11.7335 9 12 8.77615 12 8.5C12 8.22385 11.7335 8 11.4048 8H7.59524C7.26655 8 7 8.22385 7 8.5Z" fill="white"/>
<path d="M12 5.5C12 4.6729 11.1028 4 10 4C8.8972 4 8 4.6729 8 5.5C8 6.3271 8.8972 7 10 7C11.1028 7 12 6.3271 12 5.5ZM9.33333 5.5C9.33333 5.2243 9.6324 5 10 5C10.3676 5 10.6667 5.2243 10.6667 5.5C10.6667 5.7757 10.3676 6 10 6C9.6324 6 9.33333 5.7757 9.33333 5.5Z" fill="white"/>
<path d="M5.60976 11H14.3902C14.727 11 15 10.7543 15 10.4512V8.70105C15 8.39796 14.727 8.15227 14.3902 8.15227C14.0535 8.15227 13.7805 8.39796 13.7805 8.70105V9.90244H6.21951V3.09756H13.7805V6.82927C13.7805 7.13236 14.0535 7.37805 14.3902 7.37805C14.727 7.37805 15 7.13236 15 6.82927V2.54878C15 2.24569 14.727 2 14.3902 2H5.60976C5.27305 2 5 2.24569 5 2.54878V10.4512C5 10.7543 5.27305 11 5.60976 11Z" fill="white"/>
<path d="M18.4215 13H5.57851C5.25906 13 5 13.2239 5 13.5C5 13.7761 5.25906 14 5.57851 14H18.4215C18.7409 14 19 13.7761 19 13.5C19 13.2239 18.7409 13 18.4215 13Z" fill="white"/>
<path d="M18.4215 16H5.57851C5.25906 16 5 16.2239 5 16.5C5 16.7761 5.25906 17 5.57851 17H18.4215C18.7409 17 19 16.7761 19 16.5C19 16.2239 18.7409 16 18.4215 16Z" fill="white"/>
<path d="M18.4215 19H5.57851C5.25906 19 5 19.2239 5 19.5C5 19.7761 5.25906 20 5.57851 20H18.4215C18.7409 20 19 19.7761 19 19.5C19 19.2239 18.7409 19 18.4215 19Z" fill="white"/>
</svg>
