<svg width="24" height="24" viewBox="0 0 24 24" fill="none" xmlns="http://www.w3.org/2000/svg">
<path d="M17.6509 11.3453L19.7439 9.25193L14.7446 4.25193L12.6516 6.34526L7.13234 0.838594C6.09249 -0.201406 4.39939 -0.201406 3.35953 0.838594L0.826552 3.37193C-0.213304 4.41193 -0.213304 6.10526 0.826552 7.14526L6.33245 12.6519L0 18.9986V23.9986H4.99931L11.3451 17.6519L16.851 23.1586C18.1175 24.4253 19.8239 23.9586 20.6238 23.1586L23.1568 20.6253C24.1966 19.5853 24.1966 17.8919 23.1568 16.8519L17.6509 11.3453ZM8.23886 10.7586L2.71962 5.25193L5.23927 2.71859L6.93237 4.41193L5.35926 5.99859L7.239 7.87859L8.82544 6.29193L10.7585 8.22526L8.23886 10.7586ZM18.7441 21.2786L13.2382 15.7719L15.7711 13.2386L17.7042 15.1719L16.1178 16.7586L17.9975 18.6386L19.5839 17.0519L21.277 18.7453L18.7441 21.2786Z" fill="white"/>
<path d="M23.6099 5.38519C24.1298 4.86519 24.1298 4.02519 23.6099 3.50519L20.4903 0.385188C19.8637 -0.241478 18.9972 -0.00147847 18.6106 0.385188L16.1709 2.82519L21.1702 7.82519L23.6099 5.38519Z" fill="white"/>
</svg>
