<svg width="41" height="40" viewBox="0 0 41 40" fill="none" xmlns="http://www.w3.org/2000/svg">
<path d="M20.8145 4C11.9915 4 4.81445 11.1771 4.81445 20C4.81445 28.8229 11.9915 36 20.8145 36C29.6374 36 36.8145 28.8229 36.8145 20C36.8145 11.1771 29.6374 4 20.8145 4ZM20.8145 6.66667C24.1947 6.66667 27.2572 7.9375 29.6061 10C29.3561 10.349 29.0176 10.7708 28.4811 11.2917C27.3405 12.3958 25.5176 13.724 22.7311 14.75C20.8457 11.2656 18.9967 8.64583 17.7728 7C18.7467 6.77604 19.7676 6.66667 20.8145 6.66667ZM15.1478 7.91667C16.2415 9.34896 18.1895 12.0052 20.1478 15.5417C14.7259 16.9792 9.75195 17.1615 7.77279 17.1667C8.6582 13.0469 11.429 9.65625 15.1478 7.91667ZM31.4395 11.9583C33.0645 14.1094 34.0749 16.7708 34.1478 19.6667C32.9603 19.401 31.2103 19.1406 28.9395 19.125C27.7572 19.1198 26.4186 19.2031 24.9811 19.375C24.6478 18.6146 24.2884 17.8802 23.9395 17.1667C26.929 16.0208 28.9655 14.5104 30.3145 13.2083C30.7728 12.7604 31.1322 12.349 31.4395 11.9583ZM21.3561 17.9583C21.6634 18.5781 21.9759 19.2135 22.2728 19.875C16.5749 21.4531 12.4811 26.2865 10.7311 28.7083C8.71549 26.375 7.48112 23.3333 7.48112 20C7.48112 19.9427 7.48112 19.8906 7.48112 19.8333C9.2832 19.8542 15.0124 19.7292 21.3561 17.9583ZM28.9395 21.75C31.3197 21.75 32.9655 22.0833 33.9395 22.3333C33.3197 25.8854 31.3145 28.9323 28.4811 30.9167C27.9499 27.7292 27.0749 24.6979 26.0228 21.9167C27.0749 21.8125 28.0697 21.75 28.9395 21.75ZM23.3145 22.375C24.5124 25.4167 25.5176 28.7552 26.0228 32.2917C24.429 32.9635 22.6582 33.3333 20.8145 33.3333C17.7572 33.3333 14.9342 32.3073 12.6895 30.5833C14.0592 28.7083 18.0853 23.7188 23.3145 22.375Z" fill="white"/>
</svg>
