<svg width="45" height="45" viewBox="0 0 45 45" fill="none" xmlns="http://www.w3.org/2000/svg">
<path d="M22.6 2V14.1739H16.3C12.8305 14.1739 10 11.4391 10 8.08696C10 4.73478 12.8305 2 16.3 2H22.6ZM22.6 15.913V28.087H16.3C12.8305 28.087 10 25.3522 10 22C10 18.6478 12.8305 15.913 16.3 15.913H22.6ZM22.6 29.8261V35.913C22.6 39.2652 19.7695 42 16.3 42C12.8305 42 10 39.2652 10 35.913C10 32.5609 12.8305 29.8261 16.3 29.8261H22.6ZM37 8.08696C37 11.4391 34.1695 14.1739 30.7 14.1739H24.4V2H30.7C34.1695 2 37 4.73478 37 8.08696ZM30.7 15.913C29.0291 15.913 27.4267 16.5543 26.2452 17.6959C25.0637 18.8374 24.4 20.3856 24.4 22C24.4 23.6144 25.0637 25.1626 26.2452 26.3041C27.4267 27.4457 29.0291 28.087 30.7 28.087C32.3709 28.087 33.9733 27.4457 35.1548 26.3041C36.3363 25.1626 37 23.6144 37 22C37 20.3856 36.3363 18.8374 35.1548 17.6959C33.9733 16.5543 32.3709 15.913 30.7 15.913Z" fill="#F2F2F2"/>
</svg>
