<svg width="46" height="46" viewBox="0 0 46 46" fill="none" xmlns="http://www.w3.org/2000/svg">
<path d="M44.793 20.0898L25.9102 1.20703C25.1094 0.402344 24.0547 0 23 0C21.9453 0 20.8906 0.402344 20.0898 1.20703L16.3555 4.94141L20.9766 9.5625C22.5117 8.66016 24.5117 8.85547 25.8281 10.1719C27.1445 11.4883 27.3359 13.4883 26.4336 15.0195L30.9766 19.5625C32.5117 18.6602 34.5117 18.8555 35.8281 20.1719C37.3906 21.7344 37.3906 24.2656 35.8281 25.8281C34.2656 27.3906 31.7344 27.3906 30.1719 25.8281C28.8555 24.5117 28.6602 22.5117 29.5625 20.9766L25.0195 16.4336C24.6953 16.625 24.3555 16.7656 24 16.8555V29.1406C25.7227 29.5859 27 31.1367 27 33C27 35.2109 25.2109 37 23 37C20.7891 37 19 35.2109 19 33C19 31.1367 20.2773 29.5859 22 29.1406V16.8555C21.332 16.6836 20.6953 16.3516 20.1719 15.8281C18.8555 14.5117 18.6641 12.5117 19.5664 10.9805L14.9414 6.35547L1.20703 20.0898C-0.402344 21.6953 -0.402344 24.3047 1.20703 25.9102L20.0898 44.793C20.8906 45.5977 21.9453 46 23 46C24.0547 46 25.1094 45.5977 25.9102 44.793L44.793 25.9102C46.4023 24.3047 46.4023 21.6953 44.793 20.0898Z" fill="white"/>
</svg>
