<svg width="45" height="45" viewBox="0 0 45 45" fill="none" xmlns="http://www.w3.org/2000/svg">
<path d="M40.7699 4.28193C40.6056 4.1019 40.3693 4 40.1228 4H5.87718C5.63066 4 5.39441 4.1019 5.23007 4.28193C5.06229 4.46196 4.98012 4.70313 5.00409 4.94769L8.089 39.231C8.11982 39.591 8.37319 39.8899 8.72242 39.9918L22.7569 43.966C22.8322 43.9898 22.9144 44 22.9966 44C23.0787 44 23.1575 43.9898 23.2362 43.966L37.281 39.9918C37.6302 39.8899 37.8802 39.591 37.9144 39.231L40.9959 4.94769C41.0199 4.70313 40.9377 4.46196 40.7699 4.28193ZM33.3846 16.1026H16.8952L17.289 20.5285H32.9875L31.8096 33.6094L22.9932 36.252L22.9076 36.2249L14.1938 33.606L13.7179 28.2765H17.9874L18.1723 30.3451L23.0445 31.3573L27.8277 30.3451L28.3378 24.7473H13.3994L12.2387 11.8736H33.7647L33.3846 16.1026Z" fill="#F2F2F2"/>
</svg>
