<svg width="45" height="45" viewBox="0 0 45 45" fill="none" xmlns="http://www.w3.org/2000/svg">
<path d="M41.4628 4H6.54092C5.13839 4 4 5.13839 4 6.54092V41.4591C4 42.8616 5.13839 44 6.54092 44H41.4591C42.8616 44 44 42.8616 44 41.4628V6.54092C44 5.13839 42.8616 4 41.4628 4ZM25.9048 34.651C25.9048 38.4568 23.6726 40.1905 20.4137 40.1905C17.4673 40.1905 15.343 38.215 14.4762 36.381L17.471 34.5692C18.0476 35.5923 18.9256 36.381 20.1905 36.381C21.3996 36.381 22.0952 35.9085 22.0952 34.0707V22.0952H25.9048V34.651ZM34.1674 40.1905C30.7932 40.1905 28.8772 38.4903 27.8095 36.381L30.6667 34.4762C31.4442 35.7485 32.2924 36.965 34.0856 36.965C35.5923 36.965 36.381 36.2135 36.381 35.1719C36.381 33.9293 35.5625 33.4866 33.907 32.7612L32.9993 32.3705C30.3765 31.2545 28.6317 29.8557 28.6317 26.8943C28.6317 24.1711 30.7113 22.0952 33.9554 22.0952C36.2656 22.0952 37.9249 22.8988 39.1228 25.0045L36.2954 26.8237C35.6704 25.7039 35.0007 25.2649 33.9554 25.2649C32.8914 25.2649 32.218 25.942 32.218 26.8237C32.218 27.9137 32.8914 28.3527 34.4501 29.0298L35.3579 29.4204C38.4494 30.7411 40.1905 32.0915 40.1905 35.1272C40.1905 38.3973 37.6198 40.1905 34.1674 40.1905Z" fill="#F2F2F2"/>
</svg>
