<svg width="45" height="45" viewBox="0 0 45 45" fill="none" xmlns="http://www.w3.org/2000/svg">
<path d="M27.4247 3.0081C27.3288 3.02231 27.2329 3.05072 27.1406 3.09333C26.3592 3.48039 25.4712 4.63093 25.3008 4.8582C25.2901 4.8724 25.2795 4.88661 25.2723 4.90081C24.3951 6.2147 23.9262 7.7523 23.9085 9.35382C23.8978 10.5541 24.1322 11.7437 24.6082 12.8907C25.7163 15.5504 28.0179 17.7521 30.7563 18.7819C30.8486 18.8138 30.9374 18.8458 31.0972 18.9026C31.1114 18.9097 31.2464 18.9523 31.2677 18.9559L31.3672 18.9914C31.5092 19.0375 31.6548 19.0837 31.7969 19.1121C32.5179 19.2577 33.2212 19.3394 33.8818 19.3607C33.9954 19.3607 34.1091 19.3642 34.2228 19.3642C39.2059 19.3642 41.138 15.8487 41.7809 14.6768C41.8448 14.5632 41.891 14.4709 41.9336 14.4141C41.9336 14.4105 41.9336 14.4105 41.9372 14.407C42.2178 13.9915 42.1112 13.4269 41.6956 13.1428C41.2836 12.8623 40.7189 12.9688 40.4348 13.3843H40.4312C39.1029 15.3409 36.8297 15.9339 33.6793 15.1527C33.4449 15.0959 33.1892 15.0071 32.9619 14.9219C32.6635 14.8153 32.3652 14.691 32.0882 14.5561C31.5376 14.2827 31.0191 13.956 30.5503 13.5938C27.7799 11.4454 26.6966 6.97462 28.3162 4.39301C28.5329 4.04856 28.4938 3.60113 28.2203 3.29929C28.0143 3.07202 27.716 2.96904 27.4247 3.0081ZM19.3693 4.81914C19.1633 4.81559 18.9538 4.88306 18.7833 5.0251C17.4088 6.14368 16.0023 7.97602 15.9419 8.05059C15.9348 8.0648 15.9277 8.07545 15.917 8.08965C13.4308 11.7082 13.2426 16.8572 15.4411 21.2072C15.7856 21.8961 16.1763 22.5531 16.5919 23.1567L16.7162 23.3343C17.0678 23.8492 17.462 24.4316 17.9664 24.8861C18.1404 25.085 18.3287 25.2767 18.5134 25.4614L18.6022 25.5537L18.6767 25.6283C18.865 25.8094 19.0568 25.994 19.2557 26.1716H19.2592C19.2734 26.1929 19.2947 26.2071 19.3125 26.2248C19.5363 26.4237 19.7636 26.6119 20.0655 26.8498L20.1472 26.9102C20.3816 27.0984 20.6196 27.276 20.8646 27.45C20.8895 27.4677 20.9143 27.4855 20.9392 27.5032C21.0245 27.56 21.1097 27.6133 21.1949 27.6737L21.2802 27.7305L21.3796 27.7944C21.5608 27.9151 21.7384 28.0252 21.9905 28.1708C22.1539 28.2703 22.3279 28.3697 22.4416 28.4265C22.4913 28.4549 22.5446 28.4833 22.6689 28.5508L22.9459 28.6964C22.9602 28.7035 23.0241 28.7319 23.0383 28.739C23.2194 28.8313 23.4077 28.9201 23.5959 29.0053L23.8836 29.1332C24.0719 29.2148 24.2636 29.293 24.4981 29.3817L24.6046 29.4208C24.6117 29.4279 24.7005 29.4599 24.7076 29.4634C24.8781 29.5238 25.0521 29.5841 25.2262 29.641L25.624 29.7723C25.8229 29.8398 26.0537 29.9179 26.3059 29.9606C27.5455 30.1665 28.7495 30.273 29.8896 30.273C30.0246 30.273 30.1596 30.2695 30.291 30.2695C40.3282 30.0493 42.9388 21.5233 42.9636 21.438C43.0879 21.0084 42.8855 20.5503 42.4806 20.3585C42.0757 20.1668 41.5926 20.3017 41.3405 20.671C38.7974 24.3854 33.9883 25.955 29.0905 24.6624C28.8632 24.6056 28.643 24.5417 28.3695 24.4529C28.3233 24.4387 28.2842 24.4245 28.2096 24.3961C28.0498 24.3463 27.8935 24.2931 27.716 24.2256L27.4638 24.1297C27.3182 24.0729 27.1725 24.0161 26.9949 23.938L26.8777 23.8847C26.6611 23.7924 26.4515 23.6894 26.2633 23.5971L25.7447 23.3272C25.6275 23.2704 25.5245 23.2065 25.3647 23.1106L25.2759 23.0609L25.1871 23.0076C25.0557 22.9295 24.9243 22.8478 24.8035 22.7626L24.7183 22.7093C24.7112 22.7058 24.6401 22.656 24.633 22.6489C24.5265 22.5815 24.4235 22.514 24.324 22.4501C24.1038 22.2938 23.8872 22.1305 23.635 21.9316L23.5355 21.85C21.1914 19.9786 19.4581 17.4786 18.6448 14.7976C17.8883 12.3367 18.4494 9.1159 20.1472 6.18274C20.3674 5.80278 20.2857 5.31983 19.9483 5.03575C19.7813 4.89371 19.5753 4.81914 19.3693 4.81914ZM9.36405 7.54634C9.14739 7.54634 8.92719 7.62447 8.75315 7.78071C7.01634 9.33962 5.7164 11.3602 5.57433 11.591C1.8592 16.9992 2.57665 25.4046 5.12681 30.5429C5.17654 30.6495 5.22981 30.7524 5.28309 30.8554L5.31861 30.9122C5.36478 31.0152 5.41805 31.1217 5.43581 31.1431C5.46423 31.2105 5.50685 31.2851 5.52461 31.3064C5.56723 31.3952 5.60985 31.4733 5.68799 31.6082L5.97923 32.1089C6.02185 32.1764 6.06447 32.2474 6.07868 32.2723C6.13551 32.3646 6.19589 32.4605 6.25627 32.5564L6.39834 32.7836C6.44096 32.8511 6.48358 32.9115 6.51199 32.947C6.65406 33.1671 6.79613 33.3873 6.95241 33.5968C6.95951 33.6075 6.96662 33.6146 6.97372 33.6217L7.03055 33.6998C7.15841 33.8845 7.28983 34.062 7.40704 34.2076L7.92559 34.8645C7.93269 34.8717 7.98952 34.9391 7.99307 34.9462L8.06766 35.0314C8.22394 35.2232 8.39087 35.415 8.5578 35.5996C8.58267 35.628 8.60753 35.6529 8.63239 35.6813C8.79222 35.8553 8.9556 36.0293 9.12608 36.2104L9.28946 36.3666C9.42443 36.5087 9.5594 36.6472 9.70147 36.7786C9.70147 36.7821 9.76895 36.846 9.76895 36.846L9.91102 36.9774C10.0815 37.1408 10.2591 37.3041 10.3941 37.4178C10.4012 37.4284 10.529 37.5385 10.5397 37.5456C10.7066 37.6947 10.8735 37.8368 11.044 37.9753L11.9142 38.6642C12.0598 38.7707 12.209 38.8772 12.3795 39.0015C12.4363 39.0441 12.4967 39.0867 12.5571 39.1258C12.5819 39.1471 12.6104 39.1684 12.6281 39.1791L13.2816 39.6159C13.5196 39.7721 13.7576 39.9177 14.0488 40.0917L14.2051 40.1805C14.3862 40.287 14.5709 40.3935 14.745 40.4859C14.848 40.5427 14.951 40.5924 15.0397 40.6386C15.1641 40.706 15.299 40.7806 15.505 40.88C15.5228 40.8907 15.6684 40.9617 15.6862 40.9688C15.8922 41.0718 16.1017 41.1677 16.3646 41.2848C16.3646 41.2884 16.4498 41.3275 16.4498 41.3275C16.6913 41.4304 16.9257 41.5299 17.2347 41.6542C17.2845 41.6755 17.3342 41.6932 17.3448 41.6968C17.565 41.782 17.7959 41.8672 17.9842 41.9347C18.0019 41.9418 18.0978 41.9808 18.1156 41.988C18.3677 42.0732 18.6164 42.1548 18.936 42.2543C18.9893 42.272 19.0461 42.2898 19.0532 42.2898L19.2344 42.3466C19.4546 42.4141 19.6748 42.4851 19.9128 42.5313C21.6034 42.8402 23.255 43 24.8177 43H24.8213C37.8455 43 41.994 32.5209 42.0366 32.4143C42.1964 31.9918 42.0224 31.5159 41.6246 31.2957C41.2339 31.0791 40.7367 31.1821 40.4596 31.5408C37.1174 35.9405 30.8131 37.574 23.5959 35.9157C23.4219 35.873 23.2443 35.8233 23.0703 35.7701L22.7293 35.6671C22.4984 35.5961 22.2676 35.5179 22.0438 35.4398C22.0403 35.4398 21.9373 35.4008 21.9373 35.4008C21.7384 35.3333 21.5395 35.2552 21.3654 35.1877L21.1665 35.1096C20.9463 35.0208 20.7261 34.9285 20.513 34.8326L20.3887 34.7793C20.1969 34.6905 20.0122 34.6053 19.8275 34.513C19.8133 34.5059 19.6677 34.4349 19.6535 34.4313C19.5256 34.3674 19.3978 34.2999 19.2344 34.2112L18.4921 33.8134C18.4175 33.7637 18.3393 33.7176 18.2647 33.6785C18.041 33.54 17.8101 33.4015 17.5828 33.2559C17.5295 33.224 17.4834 33.1885 17.3946 33.1281C17.2383 33.0287 17.0856 32.9257 16.8618 32.7694L16.773 32.7055C16.6203 32.599 16.4711 32.4853 16.3468 32.393C16.2687 32.3362 16.1905 32.2723 16.0627 32.1764C15.949 32.0876 15.8353 32.0024 15.7288 31.9172L15.5299 31.7538C15.363 31.6189 15.2067 31.4768 15.0433 31.3384C15.022 31.3171 15.0042 31.3028 14.9794 31.2851C14.7982 31.1182 14.6135 30.9513 14.3933 30.7418L13.7505 30.1026C13.5942 29.9428 13.4379 29.7794 13.2603 29.5841C13.0969 29.403 12.9407 29.2219 12.7311 28.9734L12.3475 28.5046C12.3013 28.4372 12.2516 28.3697 12.1912 28.2987C12.0598 28.1211 11.9284 27.9471 11.797 27.7625C8.25946 22.8904 7.336 12.7202 10.0922 8.99517C10.3692 8.62231 10.3195 8.09675 9.9714 7.78071C9.80092 7.62447 9.58071 7.54634 9.36405 7.54634Z" fill="#F2F2F2"/>
</svg>
