<svg width="45" height="45" viewBox="0 0 45 45" fill="none" xmlns="http://www.w3.org/2000/svg">
<path fill-rule="evenodd" clip-rule="evenodd" d="M43.3218 20.6037C43.1075 20.1445 43.0039 19.6012 42.9818 19.0897C42.9268 17.8309 42.9736 16.5676 42.9161 15.3088C42.8646 14.1816 42.4582 13.1656 41.3646 12.5845C40.4018 12.073 39.2857 12.0221 38.2143 12.0101V14.0218C38.5714 14.0338 38.4836 14.0448 38.5707 14.0493C40.0096 14.1193 40.4918 14.5711 40.51 15.984C40.5236 17.0345 40.5143 18.0858 40.5314 19.136C40.5525 20.4103 40.7446 21.6266 41.9221 22.4312C41.9421 22.445 41.9404 22.4955 41.9518 22.5542C41.3525 22.9755 40.8782 23.5181 40.7404 24.2587C40.6293 24.8578 40.5664 25.4711 40.5475 26.0802C40.5132 27.1824 40.5486 28.287 40.5168 29.3892C40.4918 30.2524 40.0786 30.6575 39.2296 30.8498C38.91 30.9226 38.5714 30.9484 38.2143 30.9933V33C38.9286 32.9576 39.2918 32.9297 39.7811 32.8773C41.6225 32.6801 42.6593 31.7317 42.8718 29.9636C42.9382 29.4093 42.9307 28.8444 42.9432 28.2845C42.9668 27.235 42.9546 26.1806 43.0496 25.1374C43.1464 24.0731 43.9286 23.4849 45 23.5436V21.44C44.2857 21.5665 43.6275 21.2608 43.3218 20.6037V20.6037ZM9.755 24.8925C9.75464 20.8101 9.64286 16.7277 9.64286 12.6457V12.0034C8.57143 12.0034 7.41929 11.9931 6.28893 12.0083C5.83 12.0143 5.42536 12.0532 4.97036 12.1147C3.22857 12.3494 2.38893 13.1586 2.08036 14.8761C1.99107 15.3717 2.00893 15.8868 2.00143 16.3937C1.9875 17.3573 2.01536 18.3212 1.99964 19.2845C1.98 20.4976 1.4025 21.4379 0.1525 21.5093C0.108214 21.5118 0.357143 21.5623 0 21.5927V23.4679C1.42857 23.6899 1.88321 24.2608 1.97821 25.5744C1.99321 25.7836 1.99714 25.9946 1.99929 26.205C2.01143 27.3785 1.99786 28.5539 2.05143 29.7253C2.10179 30.8186 2.34714 31.7957 3.39107 32.3694C4.36607 32.9053 5.71429 32.9487 6.42857 32.9767V30.9745C6.42857 30.9576 6.35357 30.942 6.28393 30.9378C4.73429 30.8441 4.385 30.4277 4.37571 28.8929C4.36964 27.8766 4.41357 26.8603 4.39714 25.8441C4.37643 24.5673 4.18786 23.3562 3.02 22.5482C3.00214 22.5358 3.01964 22.4835 3.01393 22.4128C3.79929 21.9214 4.21679 21.1699 4.33036 20.2587C4.39321 19.756 4.41429 19.2463 4.42321 18.739C4.44107 17.6881 4.42214 16.6361 4.45107 15.5859C4.47143 14.8479 4.9475 14.3099 5.555 14.189C6.13071 14.0741 6.42857 14.0776 7.5 14.0243V14.751C7.5 18.3954 7.36893 22.0395 7.38821 25.6839C7.395 26.9321 7.53464 28.1626 8.88643 28.7016C9.62143 28.9947 10.4089 29.0848 11.2532 29.282C11.3943 28.4648 11.4404 27.7868 11.5557 27.1159C9.99964 26.674 9.755 26.445 9.755 24.8925V24.8925ZM19.2814 17.8606C16.66 16.6199 13.4786 17.7047 12.2579 20.3071C11.3386 22.2668 11.3714 24.2838 12.1807 26.2711C12.6196 27.3485 13.4129 28.1551 14.4925 28.6295C16.6011 29.556 18.735 29.3308 20.8611 28.6804C20.9757 28.6451 21.1221 28.4266 21.1082 28.3107C21.0357 27.7235 20.9154 27.1421 20.8079 26.5358C20.3018 26.662 19.8789 26.791 19.4468 26.8713C18.305 27.0837 17.1607 27.0834 16.0496 26.6461C14.9525 26.2149 14.2157 24.9741 14.3989 23.9137H21.8532C21.9443 22.8532 21.9082 21.3951 21.4521 20.1894C21.045 19.1116 20.3421 18.3629 19.2814 17.8606V17.8606ZM19.2657 22.1466H14.3671C14.3696 20.7327 15.5329 19.4637 17.0589 19.4927C18.3993 19.5181 19.3264 20.7327 19.2657 22.1466ZM39.3043 26.487C39.48 24.7005 38.935 23.6952 37.3279 22.919C36.7579 22.6436 36.1529 22.4397 35.5721 22.1844C35.1375 21.9936 34.7 21.8002 34.2936 21.5584C33.8979 21.3233 33.7321 20.9331 33.7907 20.476C33.8482 20.0246 34.1414 19.727 34.565 19.6422C35.0782 19.539 35.6161 19.4506 36.1321 19.4923C36.8614 19.5513 37.5807 19.7362 38.3332 19.8723L38.8089 17.8157C37.7907 17.6623 36.8414 17.464 35.8821 17.3891C34.8154 17.306 33.7764 17.4813 32.8 17.9794C30.7368 19.0317 30.6989 22.2622 32.595 23.3227C33.1614 23.6394 33.7675 23.8868 34.3568 24.164C34.9771 24.4563 35.62 24.7104 36.2136 25.0491C36.6643 25.3061 36.8254 25.7546 36.7046 26.2774C36.5929 26.7635 36.2211 26.9802 35.7843 27.0215C35.12 27.0841 34.4386 27.1442 33.7811 27.0668C32.9893 26.9734 32.2143 26.7356 31.4032 26.5539L30.9896 28.6005C32.8943 29.3082 34.7789 29.4242 36.6818 29.0067C38.2743 28.6574 39.1814 27.7356 39.3043 26.487V26.487ZM29.1561 23.1459C28.4564 22.7786 27.7039 22.5107 26.9818 22.1834C26.5336 21.9801 26.0589 21.8037 25.6639 21.522C24.9043 20.9801 25.0457 19.9412 25.9304 19.6634C26.4379 19.5036 27.0118 19.4541 27.545 19.4937C28.2714 19.5478 28.9882 19.7337 29.7457 19.8695L30.195 17.909C29.8104 17.8055 29.4621 17.6927 29.1054 17.6185C27.6871 17.323 26.2614 17.2084 24.8646 17.6945C23.6646 18.1123 22.8321 18.8935 22.6675 20.2078C22.4832 21.6754 22.975 22.8341 24.3446 23.5312C24.8929 23.8105 25.4804 24.013 26.04 24.2718C26.5986 24.5298 27.1689 24.7762 27.6879 25.1C28.0846 25.3474 28.2411 25.7663 28.1293 26.2506C28.0182 26.7306 27.6646 26.9724 27.2246 27.0173C26.5604 27.0848 25.8786 27.1474 25.2207 27.0714C24.4257 26.9795 23.6482 26.7409 22.8229 26.557C22.7011 27.1272 22.5582 27.7016 22.4693 28.2838C22.45 28.4104 22.5925 28.6536 22.7125 28.6949C24.6354 29.3545 26.5925 29.4492 28.5482 28.8791C29.7161 28.539 30.5329 27.8006 30.6975 26.538C30.8843 25.1046 30.5389 23.8713 29.1561 23.1459V23.1459Z" fill="#F2F2F2"/>
</svg>
