<svg width="32" height="32" viewBox="0 0 32 32" fill="none" xmlns="http://www.w3.org/2000/svg">
<path d="M9.43478 26H4V10.3182H9.43478V26ZM6.71848 8.22727C5.21522 8.22727 4 7.05532 4 5.61259C4 4.16986 5.21739 3 6.71848 3C8.2163 3 9.43478 4.17195 9.43478 5.61259C9.43478 7.05532 8.2163 8.22727 6.71848 8.22727ZM29 26H23.775V18.3682C23.775 16.548 23.7391 14.2073 21.0587 14.2073C18.338 14.2073 17.9196 16.1895 17.9196 18.2365V26H12.6957V10.3067H17.7109V12.4509H17.7815C18.4793 11.2173 20.1848 9.91673 22.7283 9.91673C28.0217 9.91673 29 13.167 29 17.3928V26Z" fill="white"/>
</svg>
