<svg width="45" height="45" viewBox="0 0 45 45" fill="none" xmlns="http://www.w3.org/2000/svg">
<path d="M38.7263 24.5428C37.1541 24.5509 35.7915 24.932 34.6495 25.499C34.2319 24.6589 33.8089 23.9195 33.7378 23.3698C33.655 22.7284 33.5587 22.3455 33.6586 21.5808C33.7585 20.816 34.1977 19.7337 34.1905 19.653C34.1842 19.5723 34.0924 19.1831 33.1852 19.1758C32.2781 19.1695 31.5023 19.3518 31.4105 19.5931C31.3187 19.8344 31.1441 20.3778 31.0361 20.9448C30.8768 21.774 29.2254 24.7315 28.2867 26.2782C27.9799 25.674 27.7189 25.1424 27.6649 24.7215C27.5821 24.0801 27.4858 23.6973 27.5857 22.9325C27.6856 22.1677 28.1248 21.0855 28.1176 21.0047C28.1113 20.924 28.0195 20.5348 27.1123 20.5275C26.2051 20.5212 25.4294 20.7035 25.3376 20.9448C25.2458 21.1862 25.1486 21.7504 24.9632 22.2966C24.7769 22.8427 22.581 27.7751 22.0059 29.0533C21.7125 29.7047 21.4578 30.2281 21.2778 30.5856C21.2769 30.5847 21.2769 30.5838 21.2769 30.5838C21.2769 30.5838 21.2661 30.6074 21.2463 30.6482C21.0925 30.9521 21.0007 31.1208 21.0007 31.1208C21.0007 31.1208 21.0016 31.1235 21.0034 31.1272C20.881 31.3503 20.7505 31.5581 20.6857 31.5581C20.6407 31.5581 20.5498 30.963 20.7055 30.1474C21.0322 28.4364 21.8169 25.7675 21.8097 25.6759C21.8061 25.6287 21.9555 25.1642 21.2967 24.9202C20.6569 24.6843 20.4283 25.078 20.3698 25.0789C20.3131 25.0798 20.2708 25.2177 20.2708 25.2177C20.2708 25.2177 20.9845 22.2167 18.91 22.2167C17.6141 22.2167 15.8178 23.6465 14.9322 24.9419C14.3742 25.2486 13.1791 25.9063 11.911 26.6084C11.4242 26.8779 10.9274 27.1537 10.4558 27.4158C10.4234 27.3805 10.3919 27.3442 10.3586 27.3088C7.84411 24.6045 3.19671 22.6921 3.3938 19.057C3.4658 17.7352 3.92118 14.2552 12.325 10.034C19.2088 6.57582 24.7202 7.52747 25.6724 9.63669C27.0331 12.6495 22.7268 18.2496 15.5784 19.057C12.8542 19.3645 11.4206 18.3004 11.0633 17.9039C10.688 17.4866 10.6322 17.4676 10.4918 17.5465C10.2632 17.6744 10.4081 18.0427 10.4918 18.2623C10.7051 18.822 11.5808 19.8154 13.0747 20.3089C14.3886 20.7434 17.5862 20.982 21.4542 19.4743C25.7858 17.7851 29.1678 13.0867 28.1752 9.15951C27.1645 5.16514 20.5948 3.85243 14.3769 6.07868C10.6763 7.40409 6.67056 9.48428 3.78978 12.1995C0.364527 15.4291 -0.18085 18.2396 0.0441406 19.4135C0.844207 23.5866 6.54907 26.3036 8.83407 28.3176C8.72157 28.3802 8.61538 28.4392 8.51908 28.4927C7.37343 29.0642 3.02481 31.3585 1.93676 33.7825C0.702913 36.5322 2.13295 38.5054 3.08061 38.7712C6.01449 39.594 9.02576 38.1135 10.6439 35.6804C12.262 33.2482 12.064 30.0812 11.3216 28.6351C11.3126 28.617 11.3018 28.5997 11.2928 28.5816C11.5889 28.4047 11.8903 28.226 12.1891 28.0491C12.7723 27.7043 13.3447 27.3823 13.8415 27.1092C13.5634 27.8767 13.36 28.7966 13.2538 30.1256C13.1296 31.6869 13.7641 33.7045 14.5947 34.4983C14.9601 34.8476 15.4002 34.8557 15.6792 34.8557C16.6457 34.8557 17.0867 34.0456 17.5718 33.0867C18.1676 31.911 18.6959 30.5429 18.6959 30.5429C18.6959 30.5429 18.0326 34.2397 19.8397 34.2397C20.4976 34.2397 21.1599 33.3788 21.4551 32.9406C21.456 32.9452 21.456 32.9479 21.456 32.9479C21.456 32.9479 21.4731 32.9198 21.5064 32.8617C21.5748 32.7565 21.6135 32.6894 21.6135 32.6894C21.6135 32.6894 21.6153 32.6821 21.6171 32.6703C21.8817 32.2076 22.4685 31.1517 23.3487 29.4099C24.4853 27.16 25.5761 24.3423 25.5761 24.3423C25.5761 24.3423 25.6778 25.0317 26.0098 26.1703C26.2051 26.8407 26.6209 27.5819 26.9485 28.2922C26.6848 28.6614 26.5228 28.8728 26.5228 28.8728C26.5228 28.8728 26.5246 28.8764 26.5273 28.8837C26.3167 29.1658 26.08 29.4697 25.8326 29.7673C24.9353 30.845 23.8661 32.0752 23.723 32.4308C23.5547 32.849 23.5943 33.1575 23.9201 33.4042C24.1577 33.5848 24.5816 33.6129 25.0244 33.5829C25.8308 33.5285 26.3986 33.3262 26.6785 33.2037C27.115 33.0486 27.6235 32.8037 28.1005 32.4499C28.9806 31.7976 29.5116 30.8641 29.4612 29.6276C29.4333 28.9463 29.2173 28.2713 28.9446 27.6336C29.0247 27.5175 29.1048 27.4013 29.1849 27.2825C30.5727 25.2368 31.649 22.9897 31.649 22.9897C31.649 22.9897 31.7507 23.6791 32.0828 24.8176C32.2511 25.3946 32.5832 26.0233 32.8811 26.6402C31.5761 27.7089 30.767 28.9508 30.4854 29.7655C29.9661 31.2723 30.3729 31.9554 31.136 32.1106C31.4816 32.1813 31.9703 32.0217 32.3375 31.8647C32.7947 31.7123 33.3436 31.4574 33.8566 31.0773C34.7368 30.425 35.5836 29.5115 35.5323 28.275C35.5089 27.7125 35.3577 27.1537 35.1526 26.6166C36.2586 26.1521 37.6914 25.8936 39.5156 26.1086C43.4295 26.5694 44.1972 29.0325 44.0505 30.063C43.9038 31.0945 43.083 31.6606 42.8085 31.8321C42.534 32.0035 42.4503 32.0625 42.4737 32.1895C42.507 32.3746 42.6339 32.3673 42.8679 32.3274C43.1901 32.273 44.9225 31.4891 44.9972 29.5859C45.0908 27.1745 42.7941 24.521 38.7263 24.5428ZM8.56138 34.794C7.26544 36.2192 5.45381 36.7581 4.67715 36.3045C3.83838 35.8146 4.17047 33.7154 5.7616 32.2031C6.73086 31.2814 7.98271 30.4323 8.81337 29.9088C9.00236 29.7945 9.27955 29.6258 9.61704 29.4217C9.67283 29.3899 9.70433 29.3718 9.70433 29.3718L9.70343 29.3699C9.76823 29.3309 9.83573 29.2901 9.90412 29.2484C10.4828 31.4021 9.92212 33.2981 8.56138 34.794ZM18.0047 28.3221C17.5529 29.4316 16.6079 32.2702 16.0329 32.1178C15.5388 31.9872 15.2382 29.829 15.9339 27.7061C16.284 26.6375 17.0318 25.3601 17.4719 24.8639C18.1793 24.0665 18.9586 23.8052 19.1476 24.1291C19.3897 24.541 18.2882 27.6263 18.0047 28.3221ZM25.8074 32.0752C25.6157 32.1759 25.4402 32.2394 25.3592 32.1904C25.2989 32.1541 25.4384 32.0217 25.4384 32.0217C25.4384 32.0217 26.4139 30.963 26.7991 30.4813C27.0223 30.2009 27.2824 29.868 27.5641 29.496C27.5668 29.5332 27.5677 29.5704 27.5677 29.6067C27.5641 30.875 26.3491 31.7305 25.8074 32.0752ZM31.8182 30.6935C31.6751 30.591 31.6994 30.2599 32.1683 29.2293C32.3528 28.8247 32.7731 28.1425 33.5047 27.4911C33.5893 27.7588 33.6415 28.0155 33.6397 28.255C33.6298 29.8508 32.5004 30.4468 31.8182 30.6935Z" fill="#F2F2F2"/>
</svg>
