<svg width="32" height="32" viewBox="0 0 32 32" fill="none" xmlns="http://www.w3.org/2000/svg">
<path d="M29.4713 4.35742C28.9936 3.94402 28.2435 3.88487 27.4678 4.20272H27.4665C26.6508 4.53682 4.3746 14.2895 3.46776 14.6879C3.30282 14.7464 1.86232 15.295 2.0107 16.517C2.14316 17.6188 3.30091 18.0751 3.44229 18.1277L9.10558 20.107C9.4813 21.3836 10.8664 26.0935 11.1727 27.0997C11.3638 27.7269 11.6752 28.5511 12.2209 28.7208C12.6998 28.9093 13.1762 28.737 13.4844 28.49L16.9468 25.2121L22.5362 29.6614L22.6693 29.7426C23.0489 29.9142 23.4125 30 23.7596 30C24.0277 30 24.285 29.9487 24.5308 29.846C25.3682 29.4949 25.7032 28.6805 25.7382 28.5882L29.9132 6.43808C30.1679 5.25508 29.8139 4.65317 29.4713 4.35742ZM14.1002 20.8987L12.1897 26.0987L10.2792 19.5987L24.9262 8.54864L14.1002 20.8987Z" fill="white"/>
</svg>
