<svg width="20" height="20" viewBox="0 0 20 20" fill="none" xmlns="http://www.w3.org/2000/svg">
<path d="M3.05683 2.00094L2 3.05772L4.32503 6.31364C4.42291 6.45075 4.55216 6.56248 4.70198 6.6395C4.85181 6.71653 5.01788 6.75662 5.18635 6.75643H5.26033C5.39928 6.75632 5.53689 6.78361 5.66529 6.83674C5.79368 6.88988 5.91033 6.9678 6.00857 7.06607L8.8356 9.89294L6.06987 12.6976C5.59682 12.5584 5.09783 12.5313 4.61249 12.6185C4.12715 12.7057 3.6688 12.9047 3.2738 13.1999C2.8788 13.4951 2.55803 13.8783 2.33692 14.319C2.11581 14.7597 2.00046 15.2459 2 15.739C2.00063 16.1934 2.09892 16.6423 2.28821 17.0553C2.4775 17.4684 2.75336 17.8359 3.09711 18.133C3.44085 18.4302 3.84445 18.6499 4.28056 18.7775C4.71667 18.905 5.17509 18.9373 5.62478 18.8722C6.07446 18.8071 6.5049 18.6461 6.88693 18.4001C7.26896 18.1542 7.59365 17.829 7.83901 17.4465C8.08437 17.0641 8.24466 16.6335 8.30903 16.1837C8.37339 15.7339 8.34033 15.2756 8.21207 14.8397L11.0169 12.0741L12.0399 13.0971L11.7176 14.063C11.6556 14.2491 11.6468 14.4489 11.6919 14.6398C11.7371 14.8308 11.8345 15.0054 11.9733 15.1441L15.5201 18.6906C15.7183 18.8887 15.987 19 16.2673 19C16.5475 19 16.8162 18.8887 17.0144 18.6906L18.6906 17.0145C18.8887 16.8164 19 16.5476 19 16.2674C19 15.9872 18.8887 15.7184 18.6906 15.5203L15.1438 11.9737C15.0051 11.8349 14.8305 11.7375 14.6396 11.6923C14.4486 11.6472 14.2489 11.6561 14.0627 11.718L13.0968 12.0403L12.0822 11.0258L14.9145 8.23275C15.3844 8.35816 15.8767 8.374 16.3537 8.27905C16.8306 8.18409 17.2794 7.98088 17.6654 7.68507C18.0514 7.38927 18.3643 7.00878 18.5799 6.57294C18.7956 6.1371 18.9083 5.65755 18.9093 5.17127C18.9093 4.887 18.8723 4.61118 18.8015 4.35015L16.5399 6.61271L14.682 6.22804L14.2973 4.37129L16.56 2.10873C16.0217 1.96402 15.4549 1.96375 14.9165 2.10795C14.3781 2.25215 13.8872 2.53573 13.4934 2.93009C13.0995 3.32446 12.8166 3.81567 12.6731 4.35423C12.5296 4.89278 12.5307 5.45964 12.6761 5.99767L9.88609 8.82771L7.0654 6.00929C6.8672 5.81115 6.75581 5.5424 6.75575 5.26215V5.18712C6.75577 5.01884 6.71559 4.85299 6.63857 4.70337C6.56155 4.55374 6.44991 4.42468 6.31294 4.32691L3.05683 2.00094ZM13.2511 13.2514C13.3001 13.2022 13.3584 13.1631 13.4226 13.1365C13.4868 13.1098 13.5557 13.0961 13.6252 13.0961C13.6947 13.0961 13.7635 13.1098 13.8277 13.1365C13.8919 13.1631 13.9502 13.2022 13.9993 13.2514L17.1698 16.4217C17.2189 16.4708 17.2579 16.5291 17.2845 16.5933C17.3111 16.6575 17.3248 16.7263 17.3248 16.7958C17.3248 16.8653 17.3111 16.9341 17.2845 16.9983C17.2579 17.0624 17.2189 17.1208 17.1698 17.1699C17.1207 17.219 17.0623 17.258 16.9981 17.2846C16.934 17.3112 16.8652 17.3248 16.7957 17.3248C16.7262 17.3248 16.6574 17.3112 16.5932 17.2846C16.529 17.258 16.4707 17.219 16.4216 17.1699L13.2511 13.9996C13.2018 13.9505 13.1628 13.8922 13.1362 13.828C13.1095 13.7638 13.0958 13.695 13.0958 13.6255C13.0958 13.556 13.1095 13.4871 13.1362 13.423C13.1628 13.3588 13.2018 13.3005 13.2511 13.2514ZM5.1705 13.6255L5.66827 13.8812L6.22733 13.9087L6.53065 14.3789L7.00094 14.6822L7.02841 15.2413L7.28417 15.739L7.02841 16.2368L7.00094 16.7958L6.53065 17.0991L6.22733 17.5694L5.66827 17.5968L5.1705 17.8526L4.67273 17.5968L4.11367 17.5694L3.81036 17.0991L3.34007 16.7958L3.31259 16.2368L3.05683 15.739L3.31259 15.2413L3.34007 14.6822L3.81036 14.3789L4.11367 13.9087L4.67273 13.8812L5.1705 13.6255Z" fill="white"/>
</svg>
