<svg width="44" height="40" viewBox="0 0 44 40" fill="none" xmlns="http://www.w3.org/2000/svg">
<path d="M42.5402 3.00664L34.6235 0.298307C34.0985 0.118307 33.5118 0.213308 33.0702 0.551641L15.2235 14.235L6.19516 8.78331C5.73183 8.50164 5.16183 8.46331 4.66516 8.68164L1.33183 10.14C0.725163 10.405 0.333496 11.005 0.333496 11.6666V28.3333C0.333496 28.995 0.725163 29.595 1.33183 29.86L4.66516 31.3183C5.16016 31.5366 5.73016 31.4966 6.19516 31.2166L15.2218 25.765L33.0685 39.4483C33.3635 39.675 33.7218 39.7916 34.0818 39.7916C34.2635 39.7916 34.4452 39.7616 34.6218 39.7016L42.5385 36.9933C43.2135 36.7633 43.6668 36.13 43.6668 35.4166V4.58331C43.6668 3.86997 43.2135 3.23664 42.5402 3.00664ZM7.00016 22.9433V17.0566L11.8718 20L7.00016 22.9433ZM33.6668 27.8616L22.0635 20L33.6668 12.1383V27.8616Z" fill="white"/>
</svg>
